<svg xmlns="http://www.w3.org/2000/svg" width="24" height="24" fill="none" viewBox="0 0 24 24"><g fill="#5156be" clip-path="url(#a)"><path d="M20.784 18.415a1.54 1.54 0 0 0-.995-.842l-3.313-2.112c-.05-.04-.517-.38-1.201-.38-.596 0-1.482.266-2.3 1.541-.265.419-.565.468-.767.468-.512 0-1.472-.36-3.097-2.053l-.103-.108c-.222-.217-1.517-1.767-2.304-2.728-.099-.142-.911-1.432.27-2.402 1.537-1.265 1.138-2.658.724-3.2L5.537 3.424c-.074-.099-.734-.985-1.566-.985-.206 0-.408.06-.59.163-.256.128-2.142 1.117-2.895 3.264-.556 1.6-.345 3.406.635 5.38 2.87 5.76 10.979 10.974 11.323 11.196.02.01.04.024.064.034.074.035 1.92.847 3.855.847 1.65 0 2.91-.606 3.643-1.758.852-1.334 1.113-2.392.778-3.15m-1.605 2.619c-.556.866-1.502 1.304-2.816 1.304-1.59 0-3.18-.645-3.422-.748-.566-.364-8.275-5.44-10.934-10.782C1.151 9.085.95 7.54 1.411 6.2c.65-1.866 2.393-2.707 2.413-2.717.015-.01.034-.015.049-.025a.16.16 0 0 1 .098-.034c.227 0 .591.334.759.566l2.166 3.18c.108.148.586.936-.547 1.866-1.52 1.255-.965 2.983-.433 3.756.212.256 2.073 2.52 2.398 2.84l.088.09c1.517 1.58 2.767 2.353 3.806 2.353.66 0 1.21-.32 1.595-.92.32-.498.837-1.089 1.472-1.089.354 0 .605.177.635.202l3.417 2.176c.059.04.118.059.187.074 0 0 .26.054.369.3.088.197.197.807-.704 2.215M20.655 17.391a.492.492 0 0 1-.35-.838 8.66 8.66 0 0 0 2.527-6.123c0-4.834-3.988-8.768-8.89-8.768-2.27 0-4.431.844-6.084 2.375a.492.492 0 1 1-.67-.721A9.9 9.9 0 0 1 13.943.677c5.445 0 9.873 4.375 9.873 9.753a9.64 9.64 0 0 1-2.81 6.815.5.5 0 0 1-.351.146"/><path d="M13.968 3.996a.49.49 0 0 1-.492-.487l-.026-2.334a.493.493 0 0 1 .487-.497h.005a.49.49 0 0 1 .492.486l.027 2.335a.49.49 0 0 1-.487.497zm6.938 6.952a.492.492 0 1 1-.005-.984l2.418-.026h.005a.492.492 0 0 1 .005.984l-2.417.026zm-11.318.776v-.476l.617-.591c1.485-1.395 2.156-2.136 2.165-3.002 0-.582-.286-1.12-1.154-1.12-.528 0-.966.264-1.235.485l-.25-.547a2.58 2.58 0 0 1 1.646-.583c1.253 0 1.78.848 1.78 1.668 0 1.06-.777 1.915-2.004 3.081l-.465.424v.017h2.613v.645zm7.764-2.171V5.988h-.851l-2.595 3.663v.512h2.703v1.56h.743v-1.56h.813v-.61zm-.743-1.916v1.916h-1.905v-.015l1.422-1.954c.163-.261.306-.512.483-.847h.03q-.03.45-.03.9"/></g><defs><clipPath id="a"><path fill="#fff" d="M0 0h24v24H0z"/></clipPath></defs></svg>