<svg xmlns="http://www.w3.org/2000/svg" width="44" height="44" fill="none" viewBox="0 0 44 44"><path fill="#5156be" d="M22 12.65h4.675c1.1 0 1.65.275 2.063.412.55.276.962.413 1.375.825.412.413.687.825.825 1.375.137.413.274.963.412 2.063v9.35c0 1.1-.275 1.65-.413 2.063-.274.55-.412.962-.825 1.375-.412.412-.824.687-1.374.825-.413.137-.963.274-2.063.412h-9.35c-1.1 0-1.65-.275-2.062-.413-.55-.274-.963-.412-1.376-.825-.412-.412-.687-.824-.825-1.374-.137-.413-.274-.963-.412-2.063v-9.35c0-1.1.275-1.65.412-2.062.276-.55.413-.963.825-1.376.413-.412.825-.687 1.375-.825.413-.137.963-.274 2.063-.412zm0-2.062h-4.675c-1.238 0-2.062.275-2.75.55a6 6 0 0 0-2.062 1.374c-.688.688-.963 1.238-1.376 2.063-.274.688-.412 1.512-.55 2.75v9.35c0 1.238.276 2.063.55 2.75a6 6 0 0 0 1.375 2.063c.688.687 1.238.962 2.063 1.374.688.276 1.512.413 2.75.55h9.35c1.238 0 2.063-.274 2.75-.55a6 6 0 0 0 2.063-1.375c.687-.687.962-1.237 1.374-2.062.276-.687.413-1.512.55-2.75v-9.35c0-1.238-.274-2.062-.55-2.75a6 6 0 0 0-1.375-2.062c-.687-.688-1.237-.963-2.062-1.376-.687-.274-1.512-.412-2.75-.55z"/><path fill="#5156be" d="M22 16.087A5.87 5.87 0 0 0 16.087 22c0 3.3 2.613 5.913 5.913 5.913S27.913 25.3 27.913 22 25.3 16.087 22 16.087m0 9.763c-2.062 0-3.85-1.65-3.85-3.85 0-2.062 1.65-3.85 3.85-3.85 2.063 0 3.85 1.65 3.85 3.85 0 2.063-1.788 3.85-3.85 3.85M28.05 17.325a1.375 1.375 0 1 0 0-2.75 1.375 1.375 0 0 0 0 2.75"/></svg>