<svg xmlns="http://www.w3.org/2000/svg" width="24" height="24" fill="none" viewBox="0 0 24 24"><g fill="#5156be" clip-path="url(#a)"><path d="M21.354 2.203h-6.646L12 .135 9.292 2.252H2.646v5.219L.185 9.39v14.523h23.63V9.34l-2.461-1.92zM12 1.366l1.083.837h-2.166zm8.37 1.822v7.877L12 16.874l-8.37-5.81V3.189zM2.645 10.375l-1.132-.787L2.646 8.7zM1.17 22.88V10.523L12 18.055l10.832-7.532V22.88zM22.486 9.588l-1.132.787V8.701z"/><path d="M17.908 4.665H5.6v.984h12.308zM17.908 7.619H5.6v.984h12.308zM17.908 10.572H5.6v.985h12.308z"/></g><defs><clipPath id="a"><path fill="#fff" d="M0 0h24v24H0z"/></clipPath></defs></svg>