<svg xmlns="http://www.w3.org/2000/svg" width="44" height="44" fill="none" viewBox="0 0 44 44"><path fill="#5156be" d="M19.935 19.663v-.857a7 7 0 0 0-.9-.063c-3.672-.005-6.66 2.985-6.66 6.666a6.67 6.67 0 0 0 2.846 5.462 6.64 6.64 0 0 1-1.79-4.542c0-3.627 2.905-6.583 6.504-6.666"/><path fill="#5156be" d="M20.097 29.373a3.046 3.046 0 0 0 3.037-2.931l.004-14.522h2.65a5 5 0 0 1-.082-.92h-3.619l-.005 14.522a3.046 3.046 0 0 1-3.037 2.931 3 3 0 0 1-1.413-.352 3.02 3.02 0 0 0 2.465 1.272M30.743 16.849v-.808a5 5 0 0 1-2.744-.817 5.03 5.03 0 0 0 2.744 1.625"/><path fill="#5156be" d="M25.706 25.409v-7.366a8.6 8.6 0 0 0 5.037 1.62v-2.814a5.03 5.03 0 0 1-2.744-1.625 5.06 5.06 0 0 1-2.21-3.304h-2.65l-.006 14.522a3.046 3.046 0 0 1-3.036 2.931 3.06 3.06 0 0 1-2.47-1.267 3.06 3.06 0 0 1-1.633-2.697 3.046 3.046 0 0 1 3.041-3.044c.313 0 .617.053.9.142v-2.84c-3.599.08-6.504 3.035-6.504 6.662 0 1.752.68 3.348 1.79 4.542a6.64 6.64 0 0 0 3.82 1.209c3.672 0 6.665-2.995 6.665-6.671"/></svg>