<svg xmlns="http://www.w3.org/2000/svg" width="44" height="44" fill="none" viewBox="0 0 44 44"><path fill="#5156be" d="M33 15.125c-.825.412-1.65.55-2.613.688.963-.55 1.65-1.376 1.925-2.476-.824.55-1.787.825-2.887 1.1-.825-.824-2.062-1.374-3.3-1.374-2.887 0-5.087 2.75-4.4 5.5-3.713-.138-7.013-1.925-9.35-4.675-1.238 2.062-.55 4.675 1.375 6.05-.687 0-1.375-.275-2.062-.55 0 2.062 1.512 3.987 3.574 4.537-.687.137-1.375.275-2.062.137.55 1.788 2.2 3.163 4.262 3.163-1.65 1.237-4.124 1.925-6.462 1.65 2.063 1.238 4.4 2.063 6.875 2.063 8.388 0 13.063-7.013 12.788-13.475A6.35 6.35 0 0 0 33 15.124"/></svg>