<svg xmlns="http://www.w3.org/2000/svg" width="135" height="48" fill="none"><g fill="#5156BE" clip-path="url(#a)"><path d="M27.5119 21.4865c-.4637 0-.8759.1746-1.2194.5062-.3434.3317-.5152.768-.5152 1.2393 0 .4713.189.9076.5152 1.2393.3435.3491.7557.5236 1.2194.5236.4636 0 .893-.192 1.2193-.5236.3263-.3491.498-.768.498-1.2393 0-.4713-.1717-.9076-.498-1.2393-.3263-.3316-.7557-.5062-1.2193-.5062ZM31.6163 21.4865c-.4636 0-.8758.1746-1.2193.5062-.3434.3317-.5152.768-.5152 1.2393 0 .4713.1889.9076.5152 1.2393.3435.3491.7557.5236 1.2193.5236.4637 0 .8931-.192 1.2194-.5236.3263-.3491.498-.768.498-1.2393 0-.4713-.1717-.9076-.498-1.2393-.3263-.3316-.7557-.5062-1.2194-.5062ZM44.9259 21.4691c-.4637 0-.8758.1745-1.2193.5062-.3435.3316-.5152.768-.5152 1.2392 0 .4713.1889.9077.5152 1.2393.3263.3491.7556.5237 1.2193.5237s.893-.192 1.2193-.5237c.3263-.3491.4981-.768.4981-1.2393 0-.4712-.1718-.9076-.4981-1.2392-.3263-.3317-.7556-.5062-1.2193-.5062Z"/><path d="M78.2595 5.41091c-.3091-.03491-.498-.05236-.6182-.05236-1.2365 0-1.9578.69818-1.9578 1.90254v9.96651h-2.3184c-1.0132 0-1.7688-.2967-2.284-.9076-.5152-.6284-.79-1.5884-.79-2.8451V6.28364l-.4809-.05237c-.3091-.03491-.498-.05236-.6354-.05236-1.2365 0-1.9578.69818-1.9578 1.90255v5.41094c0 1.2916-.2404 2.2516-.7041 2.88-.4465.5934-1.0475.8727-1.889.8727-.8415 0-1.5628-.2967-2.0608-.9076-.5152-.6284-.7557-1.5884-.7557-2.8451V6.30109l-.4808-.05236c-.3091-.03491-.498-.05237-.6183-.05237-1.2364 0-1.9577.69819-1.9577 1.90255v5.41089c0 2.5658-1.1506 3.7527-3.6064 3.7527h-5.1177c-1.2193 0-2.1467-.2967-2.7134-.9076-.5839-.5934-.8759-1.5534-.8759-2.8451V7.31346l-.4293-.08728c-.2919-.05236-.5667-.08727-.8243-.08727-.5839 0-1.0304.17455-1.3395.52364-.292.33163-.4465.80291-.4465 1.41381v4.45094c0 2.5658-1.1507 3.7527-3.6065 3.7527h-5.1176c-1.2193 0-2.1467-.2967-2.7134-.9076-.5839-.5935-.8759-1.5535-.8759-2.8451V7.33091l-.4293-.08727c-.2919-.05237-.5667-.08728-.8243-.08728-.5839 0-1.0304.17455-1.3395.52364-.292.33164-.4466.80291-.4466 1.41382v4.45088c0 2.5658-1.1506 3.7528-3.6064 3.7528h-7.4189V.122183l-.4808-.0523633c-.395-.0523636-.5496-.0523636-.6354-.0523636-1.2365 0-1.9578.6981819-1.9578 1.9025439v15.5869c0 2.0946-.4465 3.6829-1.3567 4.6953-.893.9949-2.2669 1.5185-4.08727 1.5185-1.82038 0-2.91947-.4189-3.96705-1.2392-.97888-.7855-1.49409-2.1993-1.49409-4.1717 0-1.9723.25761-2.8625.75563-4.608l.15456-.576-.58389-.1222c-.20608-.0523-.46368-.0523-.78998-.0523-.61824 0-1.08192.1571-1.42539.4538-.309119.2967-.549547.6807-.652587 1.152-.309121 1.4487-.4808549 2.7404-.4808549 3.8924 0 2.88.8414959 5.0094 2.4901419 6.336 1.6143 1.2567 3.62359 1.9025 5.99351 1.9025 2.36997 0 4.13877-.576 5.59857-1.7105 1.3567-1.0648 2.2497-2.6531 2.6618-4.7128h7.6594c1.3223 0 2.4901-.2618 3.4518-.7505.9617-.4887 1.3224-.8727 1.8204-1.4837 1.0132 1.4837 2.6962 2.2342 4.9631 2.2342h5.1348c1.3224 0 2.4902-.2618 3.4519-.7505.7213-.3666 1.3223-.8727 1.8204-1.4837 1.0132 1.4837 2.6962 2.2342 4.9803 2.2342h5.1176c1.3052 0 2.4558-.2443 3.4347-.7331.7041-.3491 1.3052-.8378 1.786-1.4312.3779.576.8587 1.0472 1.4083 1.4138.7899.5062 1.7516.768 2.8507.768 1.0991 0 2.0265-.2618 2.8337-.7331.5667-.3491 1.0475-.7855 1.4597-1.3266.3778.5586.893.995 1.4597 1.344.8244.4888 1.8204.7331 2.9367.7331h5.3752V5.48073l-.4636-.06982h.0171ZM4.86007 41.0356c-1.57995-.4189-2.57601-.7156-2.57601-1.7105 0-.9949 1.08192-1.6408 2.18102-1.6408 1.0991 0 2.02646.5237 2.36993 1.4139l.17173.4189 1.59713-.9426-.15456-.3316c-.65259-1.5186-2.16385-2.4087-4.0014-2.4087-1.83755 0-4.035749 1.4661-4.035749 3.4909 0 2.0247 2.163849 2.9672 3.881189 3.4211 1.6143.4189 2.61035.7331 2.61035 1.7454 0 1.0124-1.21931 1.6407-2.36993 1.6407-1.15061 0-2.43862-.6109-2.76491-1.6407l-.15456-.4538L0 44.9804l.120214.3141c.618242 1.6757 2.284056 2.688 4.447906 2.688 2.16385 0 4.22466-1.4312 4.22466-3.4909 0-2.0596-2.16385-3.0196-3.91554-3.4734l-.01717.0174ZM19.6807 37.7018c-1.0476-1.1869-2.5245-1.8502-4.2075-1.8502-3.3316 0-5.94195 2.6706-5.94195 6.0742C9.53125 45.3295 12.1416 48 15.4732 48c3.3317 0 3.1599-.6633 4.2075-1.8502v1.6058h1.8891V36.0611h-1.8891v1.6407Zm0 4.224c0 2.3738-1.8204 4.224-4.1216 4.224-2.3012 0-4.1388-1.8502-4.1388-4.224s1.8204-4.224 4.1388-4.224c2.3184 0 4.1216 1.8502 4.1216 4.224ZM33.4883 37.7018c-1.0475-1.1869-2.5244-1.8502-4.2074-1.8502-3.3317 0-5.942 2.6706-5.942 6.0742 0 3.4037 2.6103 6.0742 5.942 6.0742 3.3316 0 3.1599-.6633 4.2074-1.8502v1.6058h1.8891V36.0611h-1.8891v1.6407Zm0 4.224c0 2.3738-1.8203 4.224-4.1216 4.224-2.3012 0-4.1388-1.8502-4.1388-4.224s1.8204-4.224 4.1388-4.224c2.3184 0 4.1216 1.8502 4.1216 4.224ZM43.947 35.8342c-1.683 0-3.1771.6633-4.2075 1.8851v-5.9869h-1.8547v16.0232h1.8547v-1.6407C40.7699 47.3193 42.264 48 43.947 48c3.3316 0 5.942-2.6705 5.942-6.0742 0-3.4036-2.6104-6.0916-5.942-6.0916Zm4.0701 6.0916c0 2.3738-1.8204 4.224-4.1388 4.224-2.3184 0-4.1388-1.8502-4.1388-4.224s1.8204-4.224 4.1388-4.224c2.3184 0 4.1388 1.8502 4.1388 4.224ZM56.8951 35.8342c-1.683 0-3.1942.6283-4.2933 1.7629-1.0648 1.1171-1.6487 2.6531-1.6487 4.3287 0 3.5258 2.5245 6.0742 6.0279 6.0742 3.5034 0 4.0014-.96 4.9974-2.6531l.2061-.3491-1.6315-.9775-.1889.3491c-.601 1.0997-1.8547 1.7804-3.3659 1.7804-1.5113 0-3.6923-1.2916-4.0873-3.264h9.6343v-.9251c0-2.9673-1.975-6.1265-5.6673-6.1265h.0172Zm0 1.8501c1.6143 0 3.3317 1.0299 3.7266 3.3339h-7.7108c.3435-2.0073 1.9062-3.3339 3.967-3.3339h.0172ZM69.5182 35.8342c-1.683 0-3.1943.6283-4.2934 1.7629-1.0647 1.1171-1.6486 2.6531-1.6486 4.3287 0 3.5258 2.5245 6.0742 6.0278 6.0742 3.5034 0 4.0014-.96 4.9975-2.6531l.2061-.3491-1.6315-.9775-.1889.3491c-.6011 1.0997-1.8547 1.7804-3.366 1.7804s-3.6923-1.2916-4.0873-3.264h9.6343v-.9251c0-2.9673-1.9921-6.1265-5.6672-6.1265h.0172Zm0 1.8501c1.6143 0 3.3316 1.0299 3.7266 3.3339h-7.7109c.3435-2.0073 1.8891-3.3339 3.9671-3.3339h.0172ZM78.7571 31.0691h-1.8548v16.6865h1.8548V31.0691ZM123.374 19.1302c-.893-.1571-5.032-.2444-5.942-.2444h-15.697c-1.236 0-3.1251.3317-4.104-.6633-.8587-.8901-.5496-3.4734-.3435-4.5905.3606-2.0247 1.8891-3.5607 3.9495-3.77018h14.392l-4.397-5.07927L115.337 0h-12.262c-1.82 0-3.658.0523637-5.444.593455C91.4657 2.40873 87.1724 8.46546 87.4815 14.9236c.3263 6.7899 5.152 12.4277 11.6436 13.5448.9269.1571 1.8549.2269 2.7989.2269 6.234.0174 12.485 0 18.719 0 1.151 0 2.697-.1222 3.761.384 1.185.576.79 2.9847.773 4.0494-.069 2.4786-1.666 4.4858-4.173 4.608H87.533v9.8269h33.145c7.006 0 12.725-4.8 14.082-11.7643 1.46-7.6626-3.795-15.4124-11.369-16.704l-.017.0349Zm-30.0535-5.0444c-.0516.6284-.4466 1.0473-.9961 1.0298-.5839 0-.9445-.4712-.9445-1.1345.0515-4.25892 2.9538-8.16874 7.0582-9.54765.687-.2269 1.2193-.0349 1.4254.52364.2065.55855-.0859 1.06473-.7556 1.32655-3.5893 1.32654-5.4955 3.94476-5.7703 7.80216h-.0171ZM122 23.808c0 .4887-.395.9076-.893.9076h-19.423c-.481 0-.893-.4014-.893-.9076 0-.4887.395-.9076.893-.9076h19.406c.498 0 .893.384.893.9076H122Zm-6.887 18.6938c0 .4887-.395.9077-.893.9077H92.5305c-.4809 0-.893-.4015-.893-.9077 0-.4887.3949-.9076.893-.9076H114.22c.481 0 .893.4014.893.9076Zm8.931.6633c-.687.2269-1.22.0349-1.426-.5236-.206-.5586.086-1.0648.756-1.3266 3.589-1.3265 5.495-3.9622 5.77-7.8022.052-.6283.447-1.0472.996-1.0298.584 0 .945.4713.945 1.1346-.069 4.2589-2.954 8.1687-7.059 9.5476h.018Z"/></g><defs><clipPath id="a"><path fill="#fff" d="M0 0h135v48H0z"/></clipPath></defs></svg>
